<svg width="32" height="30" viewBox="0 0 32 30" fill="none" xmlns="http://www.w3.org/2000/svg">
<path d="M23.9999 8.95C23.9199 8.9375 23.8266 8.9375 23.7466 8.95C21.9066 8.8875 20.4399 7.475 20.4399 5.725C20.4399 3.9375 21.9733 2.5 23.8799 2.5C25.7866 2.5 27.3199 3.95 27.3199 5.725C27.3066 7.475 25.8399 8.8875 23.9999 8.95Z" stroke="white" stroke-width="1.5" stroke-linecap="round" stroke-linejoin="round"/>
<path d="M22.6264 18.0502C24.4531 18.3377 26.4664 18.0377 27.8798 17.1502C29.7598 15.9752 29.7598 14.0502 27.8798 12.8752C26.4531 11.9877 24.4131 11.6877 22.5864 11.9877" stroke="white" stroke-width="1.5" stroke-linecap="round" stroke-linejoin="round"/>
<path d="M7.96014 8.95C8.04014 8.9375 8.13347 8.9375 8.21347 8.95C10.0535 8.8875 11.5201 7.475 11.5201 5.725C11.5201 3.9375 9.98681 2.5 8.08014 2.5C6.17347 2.5 4.64014 3.95 4.64014 5.725C4.65347 7.475 6.12014 8.8875 7.96014 8.95Z" stroke="white" stroke-width="1.5" stroke-linecap="round" stroke-linejoin="round"/>
<path d="M9.33325 18.0502C7.50659 18.3377 5.49326 18.0377 4.07992 17.1502C2.19992 15.9752 2.19992 14.0502 4.07992 12.8752C5.50659 11.9877 7.54659 11.6877 9.37325 11.9877" stroke="white" stroke-width="1.5" stroke-linecap="round" stroke-linejoin="round"/>
<path d="M15.9999 18.2859C15.9199 18.2734 15.8266 18.2734 15.7466 18.2859C13.9066 18.2234 12.4399 16.8109 12.4399 15.0609C12.4399 13.2734 13.9733 11.8359 15.8799 11.8359C17.7866 11.8359 19.3199 13.2859 19.3199 15.0609C19.3066 16.8109 17.8399 18.2359 15.9999 18.2859Z" stroke="white" stroke-width="1.5" stroke-linecap="round" stroke-linejoin="round"/>
<path d="M12.12 22.2242C10.24 23.3992 10.24 25.3242 12.12 26.4992C14.2533 27.8367 17.7466 27.8367 19.88 26.4992C21.76 25.3242 21.76 23.3992 19.88 22.2242C17.76 20.8992 14.2533 20.8992 12.12 22.2242Z" stroke="white" stroke-width="1.5" stroke-linecap="round" stroke-linejoin="round"/>
</svg>
