<svg width="27" height="27" viewBox="0 0 27 27" fill="none" xmlns="http://www.w3.org/2000/svg">
<path d="M13.3333 17.082C15.4043 17.082 17.0833 15.4031 17.0833 13.332C17.0833 11.261 15.4043 9.58203 13.3333 9.58203C11.2622 9.58203 9.58325 11.261 9.58325 13.332C9.58325 15.4031 11.2622 17.082 13.3333 17.082Z" stroke="black" stroke-width="1.66667" stroke-linecap="round" stroke-linejoin="round"/>
<path d="M21.7423 16.7411C21.5911 17.0839 21.546 17.4641 21.6128 17.8327C21.6796 18.2013 21.8554 18.5415 22.1173 18.8093L22.1855 18.8775C22.3968 19.0886 22.5645 19.3392 22.6788 19.6151C22.7932 19.891 22.8521 20.1868 22.8521 20.4854C22.8521 20.7841 22.7932 21.0799 22.6788 21.3558C22.5645 21.6317 22.3968 21.8823 22.1855 22.0934C21.9745 22.3047 21.7238 22.4723 21.4479 22.5867C21.172 22.7011 20.8762 22.76 20.5776 22.76C20.2789 22.76 19.9832 22.7011 19.7073 22.5867C19.4313 22.4723 19.1807 22.3047 18.9696 22.0934L18.9014 22.0252C18.6336 21.7632 18.2935 21.5875 17.9248 21.5207C17.5562 21.4538 17.176 21.4989 16.8333 21.6502C16.4972 21.7943 16.2105 22.0334 16.0086 22.3383C15.8067 22.6432 15.6983 23.0005 15.6969 23.3661V23.5593C15.6969 24.1621 15.4574 24.7401 15.0312 25.1664C14.605 25.5926 14.0269 25.832 13.4242 25.832C12.8214 25.832 12.2433 25.5926 11.8171 25.1664C11.3909 24.7401 11.1514 24.1621 11.1514 23.5593V23.457C11.1426 23.0809 11.0209 22.7161 10.802 22.4101C10.5831 22.1041 10.2773 21.871 9.92416 21.7411C9.58142 21.5899 9.20121 21.5447 8.83258 21.6116C8.46395 21.6784 8.1238 21.8541 7.85598 22.1161L7.7878 22.1843C7.57672 22.3956 7.32607 22.5632 7.05016 22.6776C6.77426 22.792 6.47851 22.8509 6.17984 22.8509C5.88117 22.8509 5.58543 22.792 5.30952 22.6776C5.03362 22.5632 4.78296 22.3956 4.57189 22.1843C4.36058 21.9732 4.19294 21.7226 4.07857 21.4467C3.9642 21.1708 3.90533 20.875 3.90533 20.5763C3.90533 20.2777 3.9642 19.9819 4.07857 19.706C4.19294 19.4301 4.36058 19.1795 4.57189 18.9684L4.64007 18.9002C4.90204 18.6324 5.07778 18.2922 5.14462 17.9236C5.21146 17.555 5.16634 17.1748 5.01507 16.832C4.87102 16.4959 4.63184 16.2093 4.32696 16.0074C4.02209 15.8055 3.66483 15.6971 3.29916 15.6957H3.10598C2.50321 15.6957 1.92514 15.4562 1.49892 15.03C1.0727 14.6038 0.833252 14.0257 0.833252 13.4229C0.833252 12.8202 1.0727 12.2421 1.49892 11.8159C1.92514 11.3897 2.50321 11.1502 3.10598 11.1502H3.20825C3.58438 11.1414 3.94917 11.0197 4.25518 10.8008C4.5612 10.5819 4.79429 10.276 4.92416 9.92294C5.07543 9.5802 5.12055 9.19999 5.05371 8.83136C4.98687 8.46273 4.81113 8.12258 4.54916 7.85476L4.48098 7.78658C4.26967 7.5755 4.10204 7.32485 3.98766 7.04894C3.87329 6.77304 3.81442 6.47729 3.81442 6.17862C3.81442 5.87995 3.87329 5.58421 3.98766 5.3083C4.10204 5.0324 4.26967 4.78174 4.48098 4.57067C4.69205 4.35936 4.94271 4.19172 5.21862 4.07735C5.49452 3.96298 5.79026 3.90411 6.08893 3.90411C6.38761 3.90411 6.68335 3.96298 6.95925 4.07735C7.23516 4.19172 7.48581 4.35936 7.69689 4.57067L7.76507 4.63885C8.03289 4.90082 8.37304 5.07656 8.74167 5.1434C9.1103 5.21024 9.49051 5.16512 9.83325 5.01385H9.92416C10.2603 4.8698 10.5469 4.63062 10.7488 4.32574C10.9507 4.02087 11.0591 3.66361 11.0605 3.29794V3.10476C11.0605 2.50199 11.3 1.92392 11.7262 1.4977C12.1524 1.07148 12.7305 0.832031 13.3333 0.832031C13.936 0.832031 14.5141 1.07148 14.9403 1.4977C15.3665 1.92392 15.606 2.50199 15.606 3.10476V3.20703C15.6074 3.5727 15.7158 3.92996 15.9177 4.23483C16.1196 4.53971 16.4062 4.77889 16.7423 4.92294C17.0851 5.07421 17.4653 5.11933 17.8339 5.05249C18.2026 4.98565 18.5427 4.80991 18.8105 4.54794L18.8787 4.47976C19.0898 4.26845 19.3404 4.10081 19.6163 3.98644C19.8922 3.87207 20.188 3.8132 20.4867 3.8132C20.7853 3.8132 21.0811 3.87207 21.357 3.98644C21.6329 4.10081 21.8835 4.26845 22.0946 4.47976C22.3059 4.69083 22.4736 4.94149 22.5879 5.21739C22.7023 5.4933 22.7612 5.78904 22.7612 6.08771C22.7612 6.38638 22.7023 6.68213 22.5879 6.95803C22.4736 7.23394 22.3059 7.48459 22.0946 7.69567L22.0264 7.76385C21.7645 8.03167 21.5887 8.37182 21.5219 8.74045C21.455 9.10908 21.5002 9.48929 21.6514 9.83203V9.92294C21.7955 10.259 22.0347 10.5457 22.3395 10.7476C22.6444 10.9495 23.0017 11.0578 23.3673 11.0593H23.5605C24.1633 11.0593 24.7414 11.2988 25.1676 11.725C25.5938 12.1512 25.8333 12.7293 25.8333 13.332C25.8333 13.9348 25.5938 14.5129 25.1676 14.9391C24.7414 15.3653 24.1633 15.6048 23.5605 15.6048H23.4583C23.0926 15.6062 22.7353 15.7146 22.4305 15.9165C22.1256 16.1184 21.8864 16.405 21.7423 16.7411Z" stroke="black" stroke-width="1.66667" stroke-linecap="round" stroke-linejoin="round"/>
</svg>
