<svg width="30" height="30" viewBox="0 0 30 30" fill="none" xmlns="http://www.w3.org/2000/svg">
<path d="M19.0506 27.8391H18.8881C13.3381 27.8391 10.6631 25.6516 10.2006 20.7516C10.1506 20.2391 10.5256 19.7766 11.0506 19.7266C11.5506 19.6766 12.0256 20.0641 12.0756 20.5766C12.4381 24.5016 14.2881 25.9641 18.9006 25.9641H19.0631C24.1506 25.9641 25.9506 24.1641 25.9506 19.0766V10.9266C25.9506 5.83906 24.1506 4.03906 19.0631 4.03906H18.9006C14.2631 4.03906 12.4131 5.52656 12.0756 9.52656C12.0131 10.0391 11.5756 10.4266 11.0506 10.3766C10.5256 10.3391 10.1506 9.87656 10.1881 9.36406C10.6131 4.38906 13.3006 2.16406 18.8881 2.16406H19.0506C25.1881 2.16406 27.8131 4.78906 27.8131 10.9266V19.0766C27.8131 25.2141 25.1881 27.8391 19.0506 27.8391Z" fill="#FF5449"/>
<path d="M18.7504 15.9375H4.52539C4.01289 15.9375 3.58789 15.5125 3.58789 15C3.58789 14.4875 4.01289 14.0625 4.52539 14.0625H18.7504C19.2629 14.0625 19.6879 14.4875 19.6879 15C19.6879 15.5125 19.2629 15.9375 18.7504 15.9375Z" fill="#FF5449"/>
<path d="M7.31328 20.1258C7.07578 20.1258 6.83828 20.0383 6.65078 19.8508L2.46328 15.6633C2.10078 15.3008 2.10078 14.7008 2.46328 14.3383L6.65078 10.1508C7.01328 9.78828 7.61328 9.78828 7.97578 10.1508C8.33828 10.5133 8.33828 11.1133 7.97578 11.4758L4.45078 15.0008L7.97578 18.5258C8.33828 18.8883 8.33828 19.4883 7.97578 19.8508C7.80078 20.0383 7.55078 20.1258 7.31328 20.1258Z" fill="#FF5449"/>
</svg>
