<svg width="32" height="30" viewBox="0 0 32 30" fill="none" xmlns="http://www.w3.org/2000/svg">
<path d="M23.9999 8.95C23.9199 8.9375 23.8266 8.9375 23.7466 8.95C21.9066 8.8875 20.4399 7.475 20.4399 5.725C20.4399 3.9375 21.9733 2.5 23.8799 2.5C25.7866 2.5 27.3199 3.95 27.3199 5.725C27.3066 7.475 25.8399 8.8875 23.9999 8.95Z" stroke="#292D32" stroke-width="1.5" stroke-linecap="round" stroke-linejoin="round"/>
<path d="M22.6267 18.0502C24.4533 18.3377 26.4667 18.0377 27.88 17.1502C29.76 15.9752 29.76 14.0502 27.88 12.8752C26.4533 11.9877 24.4133 11.6877 22.5867 11.9877" stroke="#292D32" stroke-width="1.5" stroke-linecap="round" stroke-linejoin="round"/>
<path d="M7.95989 8.95C8.03989 8.9375 8.13323 8.9375 8.21323 8.95C10.0532 8.8875 11.5199 7.475 11.5199 5.725C11.5199 3.9375 9.98656 2.5 8.0799 2.5C6.17323 2.5 4.63989 3.95 4.63989 5.725C4.65323 7.475 6.11989 8.8875 7.95989 8.95Z" stroke="#292D32" stroke-width="1.5" stroke-linecap="round" stroke-linejoin="round"/>
<path d="M9.33325 18.0502C7.50659 18.3377 5.49326 18.0377 4.07992 17.1502C2.19992 15.9752 2.19992 14.0502 4.07992 12.8752C5.50659 11.9877 7.54659 11.6877 9.37325 11.9877" stroke="#292D32" stroke-width="1.5" stroke-linecap="round" stroke-linejoin="round"/>
<path d="M15.9999 18.2859C15.9199 18.2734 15.8266 18.2734 15.7466 18.2859C13.9066 18.2234 12.4399 16.8109 12.4399 15.0609C12.4399 13.2734 13.9733 11.8359 15.8799 11.8359C17.7866 11.8359 19.3199 13.2859 19.3199 15.0609C19.3066 16.8109 17.8399 18.2359 15.9999 18.2859Z" stroke="#292D32" stroke-width="1.5" stroke-linecap="round" stroke-linejoin="round"/>
<path d="M12.12 22.2242C10.24 23.3992 10.24 25.3242 12.12 26.4992C14.2533 27.8367 17.7466 27.8367 19.88 26.4992C21.76 25.3242 21.76 23.3992 19.88 22.2242C17.76 20.8992 14.2533 20.8992 12.12 22.2242Z" stroke="#292D32" stroke-width="1.5" stroke-linecap="round" stroke-linejoin="round"/>
</svg>
