<svg width="29" height="28" viewBox="0 0 29 28" fill="none" xmlns="http://www.w3.org/2000/svg">
<path d="M14.9441 22.8357L21.6647 27.1163C22.5237 27.6634 23.5903 26.8496 23.3354 25.8415L21.3937 18.1625C21.339 17.9487 21.3455 17.7236 21.4124 17.5133C21.4792 17.3029 21.6038 17.1159 21.7718 16.9735L27.7983 11.9308C28.5902 11.2682 28.1815 9.94696 27.1641 9.88058L19.2938 9.36708C19.0818 9.35185 18.8785 9.2764 18.7075 9.1495C18.5365 9.0226 18.4049 8.84948 18.328 8.6503L15.3927 1.21907C15.313 1.00766 15.1711 0.825654 14.986 0.69722C14.8009 0.568785 14.5813 0.5 14.3563 0.5C14.1314 0.5 13.9118 0.568785 13.7267 0.69722C13.5416 0.825654 13.3997 1.00766 13.3199 1.21907L10.3847 8.6503C10.3077 8.84948 10.1761 9.0226 10.0052 9.1495C9.83418 9.2764 9.63085 9.35185 9.41887 9.36708L1.54858 9.88058C0.531199 9.94696 0.122485 11.2682 0.91435 11.9308L6.94091 16.9735C7.10886 17.1159 7.23344 17.3029 7.30033 17.5133C7.36722 17.7236 7.37369 17.9487 7.31901 18.1625L5.51829 25.2839C5.21239 26.4937 6.49229 27.4702 7.52316 26.8136L13.7686 22.8357C13.9442 22.7233 14.1481 22.6636 14.3563 22.6636C14.5646 22.6636 14.7685 22.7233 14.9441 22.8357V22.8357Z" stroke="black" stroke-linecap="round" stroke-linejoin="round"/>
</svg>
