<svg width="29" height="28" viewBox="0 0 29 28" fill="none" xmlns="http://www.w3.org/2000/svg">
<path d="M14.9439 22.8357L21.6644 27.1163C22.5235 27.6634 23.5901 26.8496 23.3351 25.8415L21.3934 18.1625C21.3387 17.9487 21.3452 17.7236 21.4121 17.5133C21.479 17.3029 21.6036 17.1159 21.7715 16.9735L27.7981 11.9308C28.59 11.2682 28.1812 9.94696 27.1639 9.88058L19.2936 9.36708C19.0816 9.35185 18.8783 9.2764 18.7073 9.1495C18.5363 9.0226 18.4047 8.84948 18.3278 8.6503L15.3925 1.21907C15.3127 1.00766 15.1708 0.825654 14.9857 0.69722C14.8006 0.568785 14.581 0.5 14.3561 0.5C14.1312 0.5 13.9116 0.568785 13.7265 0.69722C13.5414 0.825654 13.3995 1.00766 13.3197 1.21907L10.3844 8.6503C10.3075 8.84948 10.1759 9.0226 10.0049 9.1495C9.83393 9.2764 9.63061 9.35185 9.41862 9.36708L1.54833 9.88058C0.530954 9.94696 0.122241 11.2682 0.914105 11.9308L6.94066 16.9735C7.10861 17.1159 7.2332 17.3029 7.30008 17.5133C7.36697 17.7236 7.37345 17.9487 7.31877 18.1625L5.51805 25.2839C5.21215 26.4937 6.49205 27.4702 7.52291 26.8136L13.7683 22.8357C13.944 22.7233 14.1479 22.6636 14.3561 22.6636C14.5643 22.6636 14.7682 22.7233 14.9439 22.8357V22.8357Z" stroke="white" stroke-linecap="round" stroke-linejoin="round"/>
</svg>
