<svg width="30" height="30" viewBox="0 0 30 30" fill="none" xmlns="http://www.w3.org/2000/svg">
<path d="M4.6875 7.5V22.5C4.6875 22.9973 4.88504 23.4742 5.23667 23.8258C5.58831 24.1775 6.06522 24.375 6.5625 24.375H25.3125C25.5611 24.375 25.7996 24.2762 25.9754 24.1004C26.1512 23.9246 26.25 23.6861 26.25 23.4375V10.3125C26.25 10.0639 26.1512 9.8254 25.9754 9.64959C25.7996 9.47377 25.5611 9.375 25.3125 9.375H6.5625C6.06522 9.375 5.58831 9.17746 5.23667 8.82582C4.88504 8.47419 4.6875 7.99728 4.6875 7.5ZM4.6875 7.5C4.6875 7.00272 4.88504 6.52581 5.23667 6.17417C5.58831 5.82254 6.06522 5.625 6.5625 5.625H22.5" stroke="black" stroke-width="2.00611" stroke-linecap="round" stroke-linejoin="round"/>
<path d="M21.0938 18.2812C21.8704 18.2812 22.5 17.6517 22.5 16.875C22.5 16.0983 21.8704 15.4688 21.0938 15.4688C20.3171 15.4688 19.6875 16.0983 19.6875 16.875C19.6875 17.6517 20.3171 18.2812 21.0938 18.2812Z" fill="black"/>
</svg>
